<svg xmlns="http://www.w3.org/2000/svg" width="563" height="946" viewBox="0 0 563 946" preserveAspectRatio="none"><path d="M-91.4 946 C-91.4 520.5 85 471.5 281 471.5 C477 471.5 653.4 520.5 653.4 946 Z" fill="#6a4fd0"/><path d="M183 477.4 L281 579.3 L379 477.4 Z" fill="#fff"/><rect x="230" y="387.2" width="101.9" height="117.6" fill="#ddb79a"/><ellipse cx="281" cy="242.2" rx="211.7" ry="207.8" fill="#8a4a2b"/><circle cx="87" cy="281.4" r="29.4" fill="#d9b397"/><circle cx="475" cy="281.4" r="29.4" fill="#d9b397"/><circle cx="281" cy="250" r="196" fill="#f3c9a5"/><circle cx="210.4" cy="261.8" r="16.7" fill="#171534"/><circle cx="351.6" cy="261.8" r="16.7" fill="#171534"/><circle cx="216.3" cy="255.9" r="5.9" fill="#fff"/><circle cx="357.4" cy="255.9" r="5.9" fill="#fff"/><circle cx="171.2" cy="316.6" r="27.4" fill="#ff9db1" opacity="0.5"/><circle cx="390.8" cy="316.6" r="27.4" fill="#ff9db1" opacity="0.5"/><path d="M230 332.3 Q281 387.2 332 332.3" fill="none" stroke="#7a6667" stroke-width="11.8" stroke-linecap="round"/><path d="M73.2 269.6 C61.5 -8.7 500.5 -8.7 488.8 269.6 C437.8 128.5 310.4 167.7 241.8 142.2 C163.4 152 100.7 210.8 73.2 269.6 Z" fill="#8a4a2b"/><ellipse cx="88.9" cy="371.5" rx="41.2" ry="52.9" fill="#8a4a2b"/><ellipse cx="79.1" cy="453.8" rx="41.2" ry="52.9" fill="#7c442c"/><ellipse cx="88.9" cy="536.2" rx="41.2" ry="52.9" fill="#8a4a2b"/><ellipse cx="79.1" cy="618.5" rx="41.2" ry="52.9" fill="#7c442c"/><ellipse cx="88.9" cy="700.8" rx="41.2" ry="52.9" fill="#8a4a2b"/><ellipse cx="79.1" cy="783.1" rx="41.2" ry="52.9" fill="#7c442c"/><circle cx="85" cy="841.9" r="31.4" fill="#f5b81f"/><ellipse cx="473.1" cy="371.5" rx="41.2" ry="52.9" fill="#8a4a2b"/><ellipse cx="482.9" cy="453.8" rx="41.2" ry="52.9" fill="#7c442c"/><ellipse cx="473.1" cy="536.2" rx="41.2" ry="52.9" fill="#8a4a2b"/><ellipse cx="482.9" cy="618.5" rx="41.2" ry="52.9" fill="#7c442c"/><ellipse cx="473.1" cy="700.8" rx="41.2" ry="52.9" fill="#8a4a2b"/><ellipse cx="482.9" cy="783.1" rx="41.2" ry="52.9" fill="#7c442c"/><circle cx="477" cy="841.9" r="31.4" fill="#f5b81f"/></svg>
