<svg xmlns="http://www.w3.org/2000/svg" width="434" height="1280" viewBox="0 0 434 1280" preserveAspectRatio="none"><defs><radialGradient id="ks"><stop offset="0" stop-color="#171534" stop-opacity="0.22"/><stop offset="0.7" stop-color="#171534" stop-opacity="0.12100000000000001"/><stop offset="1" stop-color="#171534" stop-opacity="0"/></radialGradient></defs><ellipse cx="217" cy="1266" rx="182.28" ry="12" fill="url(#ks)"/><rect x="101.3" y="640" width="107.6" height="580" rx="32.3" fill="#34406b"/><rect x="101.3" y="640" width="23.7" height="580" rx="6" fill="#48537a"/><rect x="225.1" y="640" width="107.6" height="580" rx="32.3" fill="#34406b"/><rect x="225.1" y="640" width="23.7" height="580" rx="6" fill="#48537a"/><rect x="97" y="1208" width="116.2" height="58" rx="26" fill="#171534"/><rect x="97" y="1248" width="116.2" height="18" rx="9" fill="#e8ebf5"/><rect x="220.8" y="1208" width="116.2" height="58" rx="26" fill="#171534"/><rect x="220.8" y="1248" width="116.2" height="18" rx="9" fill="#e8ebf5"/><rect x="191" y="251" width="52" height="49" rx="10" fill="#ddb79a"/><rect x="38.5" y="300" width="56.4" height="440" rx="28.2" fill="#5d46b7"/><circle cx="66.7" cy="752" r="32.7" fill="#f3c9a5"/><rect x="339.1" y="300" width="56.4" height="440" rx="28.2" fill="#5d46b7"/><circle cx="367.3" cy="752" r="32.7" fill="#f3c9a5"/><rect x="82.5" y="276" width="269.1" height="430" rx="60" fill="#6a4fd0"/><rect x="82.5" y="640" width="269.1" height="66" rx="24" fill="#5d46b7"/><rect x="96.5" y="470" width="241.1" height="22" rx="11" fill="#f5b81f" opacity="0.9"/><rect x="96.5" y="506" width="241.1" height="12" rx="6" fill="#9480dd" opacity="0.7"/><path d="M177 276 L217 344 L257 276 Z" fill="#fff"/><path d="M195 276 L217 316 L239 276 Z" fill="#f3c9a5"/><ellipse cx="217" cy="165.7" rx="116.6" ry="114.5" fill="#8a4a2b"/><circle cx="110.1" cy="187.3" r="16.2" fill="#d9b397"/><circle cx="323.9" cy="187.3" r="16.2" fill="#d9b397"/><circle cx="217" cy="170" r="108" fill="#f3c9a5"/><circle cx="178.1" cy="176.5" r="9.2" fill="#171534"/><circle cx="255.9" cy="176.5" r="9.2" fill="#171534"/><circle cx="181.4" cy="173.2" r="3.2" fill="#fff"/><circle cx="259.1" cy="173.2" r="3.2" fill="#fff"/><circle cx="156.5" cy="206.7" r="15.1" fill="#ff9db1" opacity="0.5"/><circle cx="277.5" cy="206.7" r="15.1" fill="#ff9db1" opacity="0.5"/><path d="M188.9 215.4 Q217 245.6 245.1 215.4" fill="none" stroke="#7a6667" stroke-width="6.5" stroke-linecap="round"/><path d="M102.5 180.8 C96 27.4 338 27.4 331.5 180.8 C303.4 103 233.2 124.6 195.4 110.6 C152.2 116 117.6 148.4 102.5 180.8 Z" fill="#8a4a2b"/><ellipse cx="111.2" cy="237" rx="22.7" ry="29.2" fill="#8a4a2b"/><ellipse cx="105.8" cy="282.3" rx="22.7" ry="29.2" fill="#7c442c"/><ellipse cx="111.2" cy="327.7" rx="22.7" ry="29.2" fill="#8a4a2b"/><ellipse cx="105.8" cy="373" rx="22.7" ry="29.2" fill="#7c442c"/><ellipse cx="111.2" cy="418.4" rx="22.7" ry="29.2" fill="#8a4a2b"/><circle cx="109" cy="450.8" r="17.3" fill="#f5b81f"/><ellipse cx="322.8" cy="237" rx="22.7" ry="29.2" fill="#8a4a2b"/><ellipse cx="328.2" cy="282.3" rx="22.7" ry="29.2" fill="#7c442c"/><ellipse cx="322.8" cy="327.7" rx="22.7" ry="29.2" fill="#8a4a2b"/><ellipse cx="328.2" cy="373" rx="22.7" ry="29.2" fill="#7c442c"/><ellipse cx="322.8" cy="418.4" rx="22.7" ry="29.2" fill="#8a4a2b"/><circle cx="325" cy="450.8" r="17.3" fill="#f5b81f"/></svg>
