<svg xmlns="http://www.w3.org/2000/svg" width="430" height="1280" viewBox="0 0 430 1280" preserveAspectRatio="none"><defs><radialGradient id="ks"><stop offset="0" stop-color="#171534" stop-opacity="0.22"/><stop offset="0.7" stop-color="#171534" stop-opacity="0.12100000000000001"/><stop offset="1" stop-color="#171534" stop-opacity="0"/></radialGradient></defs><ellipse cx="215" cy="1266" rx="180.6" ry="12" fill="url(#ks)"/><rect x="100.4" y="640" width="106.6" height="580" rx="32" fill="#34406b"/><rect x="100.4" y="640" width="23.5" height="580" rx="6" fill="#48537a"/><rect x="223" y="640" width="106.6" height="580" rx="32" fill="#34406b"/><rect x="223" y="640" width="23.5" height="580" rx="6" fill="#48537a"/><rect x="96.1" y="1208" width="115.2" height="58" rx="26" fill="#171534"/><rect x="96.1" y="1248" width="115.2" height="18" rx="9" fill="#e8ebf5"/><rect x="218.7" y="1208" width="115.2" height="58" rx="26" fill="#171534"/><rect x="218.7" y="1248" width="115.2" height="18" rx="9" fill="#e8ebf5"/><rect x="189" y="251" width="52" height="49" rx="10" fill="#d3a583"/><rect x="38.1" y="300" width="55.9" height="440" rx="27.9" fill="#159a5c"/><circle cx="66" cy="752" r="32.4" fill="#e8b58c"/><rect x="336" y="300" width="55.9" height="440" rx="27.9" fill="#159a5c"/><circle cx="364" cy="752" r="32.4" fill="#e8b58c"/><rect x="81.7" y="276" width="266.6" height="430" rx="60" fill="#15b364"/><rect x="81.7" y="640" width="266.6" height="66" rx="24" fill="#159a5c"/><rect x="95.7" y="470" width="238.6" height="22" rx="11" fill="#57c88f" opacity="0.9"/><rect x="95.7" y="506" width="238.6" height="12" rx="6" fill="#57c88f" opacity="0.7"/><path d="M175 276 L215 344 L255 276 Z" fill="#fff"/><path d="M193 276 L215 316 L237 276 Z" fill="#e8b58c"/><circle cx="108.1" cy="187.3" r="16.2" fill="#cfa281"/><circle cx="321.9" cy="187.3" r="16.2" fill="#cfa281"/><circle cx="215" cy="170" r="108" fill="#e8b58c"/><circle cx="176.1" cy="176.5" r="9.2" fill="#171534"/><circle cx="253.9" cy="176.5" r="9.2" fill="#171534"/><circle cx="179.4" cy="173.2" r="3.2" fill="#fff"/><circle cx="257.1" cy="173.2" r="3.2" fill="#fff"/><circle cx="154.5" cy="206.7" r="15.1" fill="#ff9db1" opacity="0.5"/><circle cx="275.5" cy="206.7" r="15.1" fill="#ff9db1" opacity="0.5"/><path d="M186.9 215.4 Q215 245.6 243.1 215.4" fill="none" stroke="#755d5c" stroke-width="6.5" stroke-linecap="round"/><path d="M100.5 172.2 C89.7 29.6 340.3 29.6 329.5 172.2 C318.7 116 269 92.2 204.2 94.4 C150.2 113.8 109.2 137.6 100.5 172.2 Z" fill="#b0602a"/><path d="M193.4 55.5 C236.6 23.1 290.6 33.9 282 66.3 C258.2 59.8 225.8 62 193.4 55.5 Z" fill="#b0602a"/></svg>
