<svg xmlns="http://www.w3.org/2000/svg" width="343" height="1280" viewBox="0 0 343 1280" preserveAspectRatio="none"><defs><radialGradient id="ks"><stop offset="0" stop-color="#171534" stop-opacity="0.22"/><stop offset="0.7" stop-color="#171534" stop-opacity="0.12100000000000001"/><stop offset="1" stop-color="#171534" stop-opacity="0"/></radialGradient></defs><ellipse cx="171.5" cy="1266" rx="144.06" ry="12" fill="url(#ks)"/><rect x="88.6" y="820" width="68.1" height="330" rx="25.5" fill="#f3c9a5"/><rect x="85.2" y="1130" width="74.9" height="92" rx="20" fill="#fff"/><rect x="85.2" y="1130" width="74.9" height="22" rx="8" fill="#2f6bd8"/><rect x="186.4" y="820" width="68.1" height="330" rx="25.5" fill="#f3c9a5"/><rect x="183" y="1130" width="74.9" height="92" rx="20" fill="#fff"/><rect x="183" y="1130" width="74.9" height="22" rx="8" fill="#2f6bd8"/><path d="M63 660 L280 660 L288 880 L175.5 880 L171.5 800 L167.5 880 L55 880 Z" fill="#34406b"/><rect x="76.7" y="1208" width="91.9" height="58" rx="26" fill="#171534"/><rect x="76.7" y="1248" width="91.9" height="18" rx="9" fill="#e8ebf5"/><rect x="174.5" y="1208" width="91.9" height="58" rx="26" fill="#171534"/><rect x="174.5" y="1248" width="91.9" height="18" rx="9" fill="#e8ebf5"/><rect x="145.5" y="251" width="52" height="49" rx="10" fill="#ddb79a"/><rect x="30.4" y="300" width="44.6" height="440" rx="22.3" fill="#c74755"/><circle cx="52.7" cy="752" r="25.9" fill="#f3c9a5"/><rect x="268" y="300" width="44.6" height="440" rx="22.3" fill="#c74755"/><circle cx="290.3" cy="752" r="25.9" fill="#f3c9a5"/><rect x="65.2" y="276" width="212.7" height="430" rx="60" fill="#e8505b"/><rect x="65.2" y="640" width="212.7" height="66" rx="24" fill="#c74755"/><rect x="79.2" y="470" width="184.7" height="22" rx="11" fill="#ee8189" opacity="0.9"/><rect x="79.2" y="506" width="184.7" height="12" rx="6" fill="#ee8189" opacity="0.7"/><path d="M131.5 276 L171.5 344 L211.5 276 Z" fill="#fff"/><path d="M149.5 276 L171.5 316 L193.5 276 Z" fill="#f3c9a5"/><circle cx="63" cy="178.3" r="25.9" fill="#3a2a22"/><circle cx="62.1" cy="146.4" r="25.9" fill="#3a2a22"/><circle cx="70.3" cy="115.6" r="25.9" fill="#3a2a22"/><circle cx="87.1" cy="88.4" r="25.9" fill="#3a2a22"/><circle cx="111" cy="67.2" r="25.9" fill="#3a2a22"/><circle cx="139.9" cy="53.7" r="25.9" fill="#3a2a22"/><circle cx="171.5" cy="49" r="25.9" fill="#3a2a22"/><circle cx="203.1" cy="53.7" r="25.9" fill="#3a2a22"/><circle cx="232" cy="67.2" r="25.9" fill="#3a2a22"/><circle cx="255.9" cy="88.4" r="25.9" fill="#3a2a22"/><circle cx="272.7" cy="115.6" r="25.9" fill="#3a2a22"/><circle cx="280.9" cy="146.4" r="25.9" fill="#3a2a22"/><circle cx="280" cy="178.3" r="25.9" fill="#3a2a22"/><circle cx="64.6" cy="187.3" r="16.2" fill="#d9b397"/><circle cx="278.4" cy="187.3" r="16.2" fill="#d9b397"/><circle cx="171.5" cy="170" r="108" fill="#f3c9a5"/><circle cx="132.6" cy="176.5" r="9.2" fill="#171534"/><circle cx="210.4" cy="176.5" r="9.2" fill="#171534"/><circle cx="135.9" cy="173.2" r="3.2" fill="#fff"/><circle cx="213.6" cy="173.2" r="3.2" fill="#fff"/><circle cx="111" cy="206.7" r="15.1" fill="#ff9db1" opacity="0.5"/><circle cx="232" cy="206.7" r="15.1" fill="#ff9db1" opacity="0.5"/><path d="M143.4 215.4 Q171.5 245.6 199.6 215.4" fill="none" stroke="#7a6667" stroke-width="6.5" stroke-linecap="round"/><g fill="#fff" fill-opacity="0.25" stroke="#171534" stroke-width="6.5"><circle cx="132.6" cy="176.5" r="27"/><circle cx="210.4" cy="176.5" r="27"/><path d="M159.6 176.5 H183.4" fill="none"/></g><path d="M57 180.8 C50.5 42.6 292.5 42.6 286 180.8 C257.9 103 187.7 124.6 149.9 110.6 C106.7 116 72.1 148.4 57 180.8 Z" fill="#3a2a22"/><circle cx="84.2" cy="116.6" r="21.6" fill="#3a2a22"/><circle cx="100.3" cy="88.7" r="21.6" fill="#3a2a22"/><circle cx="125.1" cy="68" r="21.6" fill="#3a2a22"/><circle cx="155.4" cy="56.9" r="21.6" fill="#3a2a22"/><circle cx="187.6" cy="56.9" r="21.6" fill="#3a2a22"/><circle cx="217.9" cy="68" r="21.6" fill="#3a2a22"/><circle cx="242.7" cy="88.7" r="21.6" fill="#3a2a22"/><circle cx="258.8" cy="116.6" r="21.6" fill="#3a2a22"/></svg>
